<?xml version="1.0" encoding="UTF-8"?>
<svg id="_图层_2" data-name="图层 2" xmlns="http://www.w3.org/2000/svg" viewBox="0 0 185.14 185.14">
  <defs>
    <style>
      .cls-1 {
        fill: none;
      }

      .cls-1, .cls-2 {
        stroke-width: 0px;
      }

      .cls-2 {
        fill: #fff;
      }
    </style>
  </defs>
  <g id="_图层_1-2" data-name="图层 1">
    <g>
      <rect class="cls-1" width="185.14" height="185.14"/>
      <path class="cls-2" d="m146.1,40.07c-5.41-5.41-14.57-5.65-26.7-.8l-3.59-5.51-26.98,30.07,38.41-12.55-2.8-4.3c8.42-3.06,13.38-2.48,15.31-.54,5.91,5.91-3.78,32.11-33.01,61.33-13.11,13.11-27.12,23.64-39.47,29.66-12.5,6.09-19.48,5.72-21.86,3.35-4.82-4.82.99-25.64,24.44-52.21,1.74-1.98,3.56-3.95,5.43-5.9l16.5,16.5,6.36-6.36-53.21-53.21-6.36,6.36,30.35,30.35c-2,2.08-3.95,4.19-5.81,6.31-20.67,23.42-36.12,52.46-24.05,64.53,2.28,2.28,5.9,4.26,11.57,4.26,5.06,0,11.75-1.57,20.59-5.88,12.2-5.95,25.81-15.9,38.67-28.24l31.34,31.34,6.36-6.36-31.34-31.34c24.41-25.54,42.66-58.05,29.87-70.84Z"/>
    </g>
  </g>
</svg>